<svg width="46" height="46" viewBox="0 0 46 46" fill="none" xmlns="http://www.w3.org/2000/svg">
<path d="M4 42C5.10024 37.5361 5.4982 36.0795 6.64604 32.0855C5.05087 29.2548 4.14041 25.9841 4.14041 22.5C4.14041 11.7304 12.8394 3 23.5702 3C34.301 3 43 11.7304 43 22.5C43 33.2696 34.301 42 23.5702 42C20.0409 42 16.7313 41.0556 13.8787 39.4048M4 42C9.45439 40.5464 10.6716 40.2595 13.8787 39.4048M4 42L13.8787 39.4048" stroke="#F8D4B4" stroke-width="5"/>
<path d="M16.8032 12.004H15.1211C12.4351 13.621 12.3537 15.4805 12.1095 16.3698C11.1057 20.0619 17.3187 26.8263 17.807 27.3383C22.7448 32.3779 28.9307 32.9978 29.419 32.9978C32.3282 33.078 34.0874 30.9799 34.3779 30.6334L34.384 30.6262C34.6553 30.3028 34.5739 30.195 34.9266 28.8745C35.2087 27.818 34.61 27.2665 34.2754 27.1227C33.2354 26.6287 30.9383 25.5381 30.0702 25.1285C29.202 24.7188 28.7317 25.2093 28.6051 25.5058C28.171 26.0358 27.216 27.1982 26.8687 27.6078C26.4346 28.1199 26.1091 27.8773 25.892 27.8234C21.3612 26.3412 18.9465 22.3527 18.2954 21.4903C17.6442 20.6279 18.0783 20.2506 18.214 20.0619C18.3496 19.8733 19.3535 18.6336 19.6519 18.1755C19.8907 17.8089 19.7152 17.2143 19.5977 16.9627C19.1003 15.7859 18.0458 13.2814 17.807 12.6777C17.5683 12.0741 17.0383 11.977 16.8032 12.004Z" fill="#F8D4B4" stroke="#F8D4B4"/>
</svg>
