<svg width="68" height="68" viewBox="0 0 68 68" fill="none" xmlns="http://www.w3.org/2000/svg">
<path d="M65 33.5C65 50.3447 51.3938 64 34.6098 64C29.0895 64 23.913 62.5228 19.4513 59.9409C14.4351 61.2776 12.5312 61.7265 4 64C5.72089 57.0181 6.34334 54.7398 8.13868 48.4928C5.64367 44.0652 4.21962 38.9495 4.21962 33.5C4.21962 16.6553 17.8258 3 34.6098 3C51.3938 3 65 16.6553 65 33.5Z" fill="#7C3D5A"/>
<path d="M4 64C5.72089 57.0181 6.34334 54.7398 8.13868 48.4928C5.64367 44.0652 4.21962 38.9495 4.21962 33.5C4.21962 16.6553 17.8258 3 34.6098 3C51.3938 3 65 16.6553 65 33.5C65 50.3447 51.3938 64 34.6098 64C29.0895 64 23.913 62.5228 19.4513 59.9409M4 64C12.5312 61.7265 14.4351 61.2776 19.4513 59.9409M4 64L19.4513 59.9409" stroke="#F8D4B4" stroke-width="5"/>
<path d="M24.5127 17.0832H21.8817C17.6806 19.6123 17.5533 22.5208 17.1713 23.9118C15.6012 29.6866 25.3189 40.2667 26.0828 41.0676C33.806 48.9501 43.4813 49.9196 44.2451 49.9196C48.7954 50.0451 51.5469 46.7634 52.0013 46.2215L52.0108 46.2102C52.4352 45.7044 52.3078 45.5357 52.8595 43.4703C53.3008 41.8179 52.3644 40.9552 51.8411 40.7304C50.2144 39.9576 46.6215 38.2519 45.2636 37.6112C43.9056 36.9705 43.1701 37.7376 42.9721 38.2013C42.2931 39.0303 40.7994 40.8484 40.2562 41.4892C39.5772 42.29 39.068 41.9107 38.7285 41.8264C31.6418 39.508 27.8651 33.2695 26.8466 31.9207C25.8282 30.5718 26.5071 29.9817 26.7193 29.6866C26.9315 29.3915 28.5016 27.4525 28.9684 26.736C29.3418 26.1627 29.0674 25.2325 28.8835 24.8391C28.1055 22.9985 26.4562 19.0812 26.0828 18.137C25.7093 17.1927 24.8804 17.041 24.5127 17.0832Z" fill="#F8D4B4" stroke="#F8D4B4"/>
</svg>
